<svg xmlns="http://www.w3.org/2000/svg" width="512" height="512" viewBox="0 0 512 512" version="1.1"><path d="M 134 102.062 C -43.415 132.459, -40.077 389.550, 138 410.070 C 253.906 423.426, 336.925 314.492, 296.953 201.500 C 273.418 134.972, 200.746 90.626, 134 102.062 M 337 257 L 337 409 423 409 L 509 409 509 377.500 L 509 346 457 346 L 405 346 405 317 L 405 288 456 288 L 507 288 507 257.500 L 507 227 456 227 L 405 227 405 198.500 L 405 170 457 170 L 509 170 509 137.500 L 509 105 423 105 L 337 105 337 257 M 140.500 171.468 C 102.871 180.286, 80.837 211.573, 80.617 256.500 C 80.062 369.701, 221.798 375.237, 229.575 262.319 C 233.323 207.905, 186.930 160.588, 140.500 171.468" stroke="none" fill="#b51200" fill-rule="evenodd"/><path d="M 134 102.062 C -43.415 132.459, -40.077 389.550, 138 410.070 C 253.906 423.426, 336.925 314.492, 296.953 201.500 C 273.418 134.972, 200.746 90.626, 134 102.062 M 337 257 L 337 409 423 409 L 509 409 509 377.500 L 509 346 457 346 L 405 346 405 317 L 405 288 456 288 L 507 288 507 257.500 L 507 227 456 227 L 405 227 405 198.500 L 405 170 457 170 L 509 170 509 137.500 L 509 105 423 105 L 337 105 337 257 M 140.500 171.468 C 102.871 180.286, 80.837 211.573, 80.617 256.500 C 80.062 369.701, 221.798 375.237, 229.575 262.319 C 233.323 207.905, 186.930 160.588, 140.500 171.468" stroke="none" fill="#b51200" fill-rule="evenodd"/></svg>